<svg width="30" height="30" viewBox="0 0 24 24" fill="none" xmlns="http://www.w3.org/2000/svg">
<path fill-rule="evenodd" clip-rule="evenodd" d="M6.271 2.112C5.461 2.218 5.033 2.413 4.727 2.712C4.422 3.012 4.223 3.432 4.114 4.225C4.002 5.042 4 6.124 4 7.675V16.245C4.39598 15.9746 4.83533 15.7741 5.299 15.652C5.827 15.513 6.443 15.513 7.346 15.514H20V7.676C20 6.124 19.998 5.042 19.886 4.225C19.777 3.432 19.578 3.012 19.273 2.712C18.967 2.413 18.539 2.218 17.729 2.112C16.895 2.002 15.791 2 14.207 2H9.793C8.209 2 7.105 2.002 6.271 2.112ZM6.759 6.595C6.759 6.147 7.129 5.784 7.586 5.784H16.414C16.631 5.78213 16.8398 5.86633 16.9948 6.01815C17.1498 6.16997 17.2384 6.37704 17.241 6.594C17.2386 6.81113 17.1502 7.01846 16.9952 7.17049C16.8401 7.32253 16.6311 7.40687 16.414 7.405H7.586C7.36903 7.40687 7.16017 7.32267 7.00516 7.17085C6.85016 7.01903 6.76164 6.81196 6.759 6.595ZM7.586 9.568C7.36903 9.56613 7.16017 9.65033 7.00516 9.80215C6.85016 9.95397 6.76164 10.161 6.759 10.378C6.759 10.826 7.129 11.189 7.586 11.189H13.103C13.3201 11.1911 13.5293 11.1071 13.6845 10.9552C13.8397 10.8034 13.9284 10.5961 13.931 10.379C13.9286 10.1617 13.8401 9.95422 13.6848 9.80215C13.5296 9.65008 13.3203 9.56587 13.103 9.568H7.586Z" fill="#FF8C42"/>
<path d="M7.47278 17.1348H19.9998C19.9968 18.2648 19.9788 19.1088 19.8868 19.7748C19.7778 20.5678 19.5788 20.9878 19.2738 21.2878C18.9678 21.5868 18.5398 21.7818 17.7298 21.8878C16.8958 21.9978 15.7918 21.9998 14.2078 21.9998H9.79279C8.20879 21.9998 7.10478 21.9978 6.27078 21.8888C5.46078 21.7818 5.03279 21.5868 4.72679 21.2878C4.42179 20.9878 4.22278 20.5678 4.11378 19.7748C4.07278 19.4748 4.04579 19.1378 4.02979 18.7548C4.16685 18.3802 4.39294 18.0446 4.68857 17.7768C4.9842 17.509 5.34051 17.3172 5.72679 17.2178C6.01679 17.1418 6.39378 17.1348 7.47278 17.1348Z" fill="#FF8C42"/>
</svg>
