<svg xmlns="http://www.w3.org/2000/svg" version="1.1" xmlns:xlink="http://www.w3.org/1999/xlink" width="30" height="30" x="0" y="0" viewBox="0 0 64 64" style="enable-background:new 0 0 512 512" xml:space="preserve" class=""><g><path d="M48 25c0-1.654-1.346-3-3-3h-.47a50.272 50.272 0 0 1-23.533-5.866A9.795 9.795 0 0 0 16 24.708v6.032l.411-.74H17c4.411 0 8 3.589 8 8v.589l-5.686 3.159A15.978 15.978 0 0 0 32 48c7.917 0 14.491-5.786 15.761-13.347L46 36.414l-1.283-1.283-.149.596A3 3 0 0 1 41.658 38H40v-1.658c0-1.377.937-2.577 2.272-2.91l.596-.149L41.586 32 48 25.586z" fill="#FF8C42" opacity="1" data-original="#FF8C42"></path><path d="m36.841 51.105 14.358 1.958a8.92 8.92 0 0 1 2.801.876V28.414l-4.022 4.022c-.197 8.174-5.863 15-13.477 16.971zM14.13 34.106A18.33 18.33 0 0 1 14 32v-7.292c0-4.519 2.511-8.581 6.553-10.603l.468-.233.458.25A48.263 48.263 0 0 0 44.53 20H45c2.326 0 4.27 1.605 4.826 3.76l3.619-3.619C51.197 10.182 42.271 3 32 3c-12.131 0-22 9.869-22 22v15.586l1.194-1.194zM19 56.054v-3.525l.532-.281a6.546 6.546 0 0 0 3.375-4.717 18.006 18.006 0 0 1-5.357-4.803l-1.942 1.079-5.127 5.127a6.53 6.53 0 0 0 3.853 3.689l.666.234v.707a7.237 7.237 0 0 0 4.391 6.658l.767.328-.182-.363A9.279 9.279 0 0 1 19 56.054zM59.879 17c-.295 0-.584.119-.793.328L44.414 32 46 33.586l14.672-14.672A1.122 1.122 0 0 0 59.879 17z" fill="#FF8C42" opacity="1" data-original="#FF8C42"></path><path d="m17.573 32.027-4.333 7.799 1.934 1.934 7.799-4.333a6.012 6.012 0 0 0-5.4-5.4zM50.93 55.046l-15.771-2.151-.619-3.095c-.832.118-1.675.2-2.54.2-.859 0-1.707-.068-2.543-.186l-.616 3.081L21 53.964v2.09a7.28 7.28 0 0 0 .765 3.239L22.618 61h34.31c-.442-3.05-2.873-5.529-5.998-5.954zM13.138 55.037l-.067.009C9.945 55.471 7.514 57.95 7.072 61h9.712a9.2 9.2 0 0 1-3.646-5.963zM12 41.414l-8.672 8.672a1.122 1.122 0 0 0 1.586 1.586L13.586 43z" fill="#FF8C42" opacity="1" data-original="#FF8C42"></path></g></svg>