<svg xmlns="http://www.w3.org/2000/svg" version="1.1" xmlns:xlink="http://www.w3.org/1999/xlink" width="30" height="30" x="0" y="0" viewBox="0 0 64 64" style="enable-background:new 0 0 512 512" xml:space="preserve" class=""><g><path d="M10.555 30.31a2.028 2.028 0 0 0 .754 1.163l10.916 8.344a1.213 1.213 0 0 0 1.938-.958 1.174 1.174 0 0 0-.248-.743l-5.264-6.632a3.359 3.359 0 0 1-3.704-2.756l-.915-5.555a1.08 1.08 0 1 1 2.132-.345l.904 5.544a1.179 1.179 0 0 0 2.337-.182 1.11 1.11 0 0 0-.011-.194l-.775-4.77c-.083-.531-1.378-1.874-1.648-2.336l-3.23-4.166c-.077-.113-.17-.205-.247-.323a6.426 6.426 0 0 1-1.227-2.767l-1.184-6.621a1.014 1.014 0 0 0-1.185-.829l-3.897.678a1.024 1.024 0 0 0-.818 1.25zM45.807 23.37a6.007 6.007 0 0 0-.344 1.603l-.374 3.108c-.075.624-.042 1.437.55 1.649a.963.963 0 0 0 1.058-.435 2.817 2.817 0 0 0 .365-1.164l.726-4.555a3.18 3.18 0 0 1 .353-1.187.96.96 0 0 1 1.834.293 3.18 3.18 0 0 1-.033 1.23l-.56 3.539a7.667 7.667 0 0 1-1.017 3.218 2.622 2.622 0 0 1-2.936 1.152c-1.319 1.554-4.707 5.552-4.903 6.09-.2.548-.117 2.179.805 2.06a1.66 1.66 0 0 0 .746-.378l9.946-7.411a4.918 4.918 0 0 0 1.311-1.258 4.914 4.914 0 0 0 .532-1.518l4.875-21.09c.024-.106.048-.215.065-.325a1.148 1.148 0 0 0-.086-.753 1.522 1.522 0 0 0-1.17-.568l-3.037-.464a1.488 1.488 0 0 0-1.101.118 1.488 1.488 0 0 0-.456 1.028l-.899 5.75a10.177 10.177 0 0 1-.6 2.467 10.18 10.18 0 0 1-1.441 2.205l-3.327 4.236a6.005 6.005 0 0 0-.882 1.36zM40.237 5.054c-2.911-1.426-7.635-.98-10.799-1.045A13.95 13.95 0 0 0 15.69 15.712l2.186 2.831c3.488-5.08 16.118-11.23 22.36-13.49zM46.276 19.06l2.466-3.219a13.74 13.74 0 0 0-5.986-9.442c-2.013.754-5.125 1.97-8.484 3.531a13.623 13.623 0 0 1 12.004 9.13z" fill="#FF8C42" opacity="1" data-original="#FF8C42" class=""></path><path d="M25.595 36.77a3.28 3.28 0 0 1 .721 1.96c2.832 1.367 7.601 2.81 11.95.096a3.45 3.45 0 0 1 .754-2.745l4.511-5.35a3.229 3.229 0 0 1-.657-2.326l.635-5.028a4.167 4.167 0 0 1 1.099-2.142 11.371 11.371 0 0 0-11.122-9.173h-3.488c-5.318 2.864-8.935 5.641-10.755 8.258a5.962 5.962 0 0 1 1.507 2.573l.765 4.747a3.353 3.353 0 0 1-.905 2.864zM54.146 59.088c.138-5.368-6.691-9.418-12.693-10.777a4.233 4.233 0 0 1-3.391-4.145v-2.778a12.272 12.272 0 0 1-5.222 1.13 17.355 17.355 0 0 1-7.159-1.7 2.408 2.408 0 0 1-.29.366v3.607a4.209 4.209 0 0 1-3.166 4.09c-4.436 1.194-12.21 3.352-11.993 9.56v1.55h43.914z" fill="#FF8C42" opacity="1" data-original="#FF8C42" class=""></path></g></svg>