<svg xmlns="http://www.w3.org/2000/svg" version="1.1" xmlns:xlink="http://www.w3.org/1999/xlink" width="30" height="30" x="0" y="0" viewBox="0 0 24 24" style="enable-background:new 0 0 512 512" xml:space="preserve" class=""><g><clipPath id="a"><path d="M0 0h24v24H0z" fill="#FF8C42" opacity="1" data-original="#FF8C42" class=""></path></clipPath><g clip-path="url(#a)"><path fill="#FF8C42" fill-rule="evenodd" d="M1.452.162a.993.993 0 0 1 1.311.2l8.529 10.339L19.82.362a.993.993 0 0 1 1.311-.2c.424.278.574.83.347 1.285l-6.708 13.47 1.186 1.438A3.957 3.957 0 0 1 17.6 16c2.2 0 3.983 1.79 3.983 4 0 .376-.051.74-.148 1.085l1.253 1.188c.4.379.418 1.012.04 1.414a.993.993 0 0 1-1.408.04l-.925-.877A3.963 3.963 0 0 1 17.6 24c-2.2 0-3.984-1.79-3.984-4 0-.896.293-1.723.789-2.39l-1.916-2.323-1.197-1.19-1.197 1.19-1.916 2.323c.495.667.789 1.494.789 2.39 0 2.21-1.784 4-3.984 4S1 22.21 1 20s1.784-4 3.984-4c.586 0 1.142.127 1.643.355l1.186-1.438-6.708-13.47A1.002 1.002 0 0 1 1.452.162zM17.6 18c1.1 0 1.992.895 1.992 2s-.892 2-1.992 2-1.992-.895-1.992-2 .892-2 1.992-2zM4.984 18c-1.1 0-1.992.895-1.992 2s.892 2 1.992 2 1.992-.895 1.992-2-.892-2-1.992-2z" clip-rule="evenodd" opacity="1" data-original="#FF8C42" class=""></path></g></g></svg>