<svg width="30" height="30" viewBox="0 0 14 14" fill="none" xmlns="http://www.w3.org/2000/svg">
<path d="M7.405 1.15036C7.29197 1.0542 7.14841 1.00139 7 1.00139C6.85159 1.00139 6.70803 1.0542 6.595 1.15036L1.72 5.29436C1.65098 5.35309 1.59555 5.42612 1.55756 5.5084C1.51957 5.59068 1.49993 5.68024 1.5 5.77086V12.2504C1.5 12.3167 1.52634 12.3803 1.57322 12.4271C1.62011 12.474 1.6837 12.5004 1.75 12.5004H4.25C4.3163 12.5004 4.37989 12.474 4.42678 12.4271C4.47366 12.3803 4.5 12.3167 4.5 12.2504V8.75036C4.5 8.41884 4.6317 8.1009 4.86612 7.86648C5.10054 7.63206 5.41848 7.50036 5.75 7.50036H8.252C8.41615 7.50036 8.5787 7.53269 8.73035 7.59551C8.88201 7.65833 9.01981 7.75041 9.13588 7.86648C9.25196 7.98255 9.34403 8.12035 9.40685 8.27201C9.46967 8.42366 9.502 8.58621 9.502 8.75036V12.2504C9.502 12.3167 9.52834 12.3803 9.57522 12.4271C9.62211 12.474 9.6857 12.5004 9.752 12.5004H12.25C12.3163 12.5004 12.3799 12.474 12.4268 12.4271C12.4737 12.3803 12.5 12.3167 12.5 12.2504V5.77036C12.5 5.67982 12.4803 5.59036 12.4423 5.50817C12.4043 5.42599 12.349 5.35303 12.28 5.29436L7.405 1.15036ZM5.9475 0.388862C6.24131 0.139094 6.61437 0.00195312 7 0.00195312C7.38563 0.00195312 7.75869 0.139094 8.0525 0.388862L12.9275 4.53236C13.1069 4.6849 13.2511 4.87462 13.3499 5.08839C13.4488 5.30215 13.5 5.53485 13.5 5.77036V12.2504C13.5 12.5819 13.3683 12.8998 13.1339 13.1342C12.8995 13.3687 12.5815 13.5004 12.25 13.5004H9.752C9.42048 13.5004 9.10254 13.3687 8.86812 13.1342C8.6337 12.8998 8.502 12.5819 8.502 12.2504V8.75036C8.502 8.68406 8.47566 8.62047 8.42878 8.57359C8.38189 8.5267 8.3183 8.50036 8.252 8.50036H5.75C5.6837 8.50036 5.62011 8.5267 5.57322 8.57359C5.52634 8.62047 5.5 8.68406 5.5 8.75036V12.2504C5.5 12.5819 5.3683 12.8998 5.13388 13.1342C4.89946 13.3687 4.58152 13.5004 4.25 13.5004H1.75C1.41848 13.5004 1.10054 13.3687 0.866117 13.1342C0.631696 12.8998 0.5 12.5819 0.5 12.2504V5.77036C0.500013 5.53485 0.551219 5.30215 0.650072 5.08839C0.748925 4.87462 0.893062 4.6849 1.0725 4.53236L5.9475 0.388862Z" fill="#FF8C42"/>
</svg>
