<svg width="30" height="30" viewBox="0 0 14 14" fill="none" xmlns="http://www.w3.org/2000/svg">
<path d="M5.9475 0.388862C6.24131 0.139094 6.61437 0.00195312 7 0.00195312C7.38563 0.00195312 7.75869 0.139094 8.0525 0.388862L12.9275 4.53236C13.1069 4.6849 13.2511 4.87462 13.3499 5.08839C13.4488 5.30215 13.5 5.53485 13.5 5.77036V12.2504C13.5 12.5819 13.3683 12.8998 13.1339 13.1342C12.8995 13.3687 12.5815 13.5004 12.25 13.5004H10.25C9.91848 13.5004 9.60054 13.3687 9.36612 13.1342C9.1317 12.8998 9 12.5819 9 12.2504V9.00036C9 8.73592 8.89526 8.48225 8.7087 8.29484C8.52214 8.10743 8.26894 8.00155 8.0045 8.00036H5.995C5.73065 8.00168 5.47758 8.10762 5.29112 8.29502C5.10467 8.48241 5 8.73601 5 9.00036V12.2504C5 12.4145 4.96767 12.5771 4.90485 12.7287C4.84203 12.8804 4.74996 13.0182 4.63388 13.1342C4.51781 13.2503 4.38001 13.3424 4.22835 13.4052C4.0767 13.468 3.91415 13.5004 3.75 13.5004H1.75C1.41848 13.5004 1.10054 13.3687 0.866117 13.1342C0.631696 12.8998 0.5 12.5819 0.5 12.2504V5.77036C0.500013 5.53485 0.551219 5.30215 0.650072 5.08839C0.748925 4.87462 0.893062 4.6849 1.0725 4.53236L5.9475 0.388862Z" fill="#FF8C42"/>
</svg>
