<svg xmlns="http://www.w3.org/2000/svg" version="1.1" xmlns:xlink="http://www.w3.org/1999/xlink" width="30" height="30" x="0" y="0" viewBox="0 0 64 64" style="enable-background:new 0 0 512 512" xml:space="preserve" class=""><g><path d="M51.89 58c.06 1.12.99 2 2.11 2s2.05-.88 2.11-2l1.51-28h-7.24zM50.27 28h7.46l.27-5h-8zM61.69 6.21l-.26-.15C59.19 4.71 56.62 4 54 4s-5.19.71-7.43 2.06l-.26.15C45.5 6.7 45 7.58 45 8.53c0 .31.05.62.16.91L49.29 21h9.42l4.13-11.56c.11-.29.16-.6.16-.91 0-.95-.5-1.83-1.31-2.32zM27 17a20.847 20.847 0 0 0-13 4.521v-.051a8.17 8.17 0 0 0-4.55-7.36.956.956 0 0 0-.9 0A8.17 8.17 0 0 0 4 21.47V38H3v4H1l.895 16.111A2 2 0 0 0 3.892 60h10.216a2 2 0 0 0 1.997-1.889L17 42h-2v-4h-1V24.17C17.538 20.84 22.13 19 27 19c10.477 0 19 8.523 19 19 0 5.007-1.934 9.73-5.392 13.25l-.851.75H18.44l-.34 6.22c-.04.65-.23 1.26-.53 1.78H41c3.31 0 6-2.69 6-6v-2h-4.391C46.079 48.146 48 43.22 48 38c0-11.58-9.42-21-21-21zM6 38V23.8a10.96 10.96 0 0 0 5.88-3.51c.07.38.12.78.12 1.18v2.084a.977.977 0 0 0 0 .412V38H6zm24 19h-6c-.55 0-1-.45-1-1s.45-1 1-1h6c.55 0 1 .45 1 1s-.45 1-1 1z" fill="#FF8C42" opacity="1" data-original="#FF8C42" class=""></path><path d="m19.11 40-.56 10h19.01C40.9 47.07 43 42.78 43 38c0-8.82-7.18-16-16-16-4.26 0-8.13 1.67-11 4.4V36h1v4z" fill="#FF8C42" opacity="1" data-original="#FF8C42" class=""></path></g></svg>