<svg xmlns="http://www.w3.org/2000/svg" version="1.1" xmlns:xlink="http://www.w3.org/1999/xlink" width="30" height="30" x="0" y="0" viewBox="0 0 512 512" style="enable-background:new 0 0 512 512" xml:space="preserve" class="hovered-paths"><g><path d="M78.2 47.133c0-8.284-6.716-15-15-15h-9.1V15c0-8.284-6.716-15-15-15s-15 6.716-15 15v17.133H15c-8.284 0-15 6.716-15 15s6.716 15 15 15h9.1v17.133c0 8.284 6.716 15 15 15s15-6.716 15-15V62.133h9.1c8.284 0 15-6.716 15-15zM497 96.4h-9.1V79.267c0-8.284-6.716-15-15-15s-15 6.716-15 15V96.4h-9.1c-8.284 0-15 6.716-15 15s6.716 15 15 15h9.1v17.133c0 8.284 6.716 15 15 15s15-6.716 15-15V126.4h9.1c8.284 0 15-6.716 15-15s-6.716-15-15-15zM383.252 89.011a95.93 95.93 0 0 1 .215 6.322v128.533c0 72.465-59.498 127.467-127.467 127.467-68.843 0-127.467-55.448-127.467-127.467V95.333c0-2.125.077-4.231.215-6.322-19.885 20.912-35.561 45.027-46.637 71.766-11.84 28.585-17.844 58.766-17.844 89.703V497c0 8.284 6.716 15 15 15h353.467c8.284 0 15-6.716 15-15V250.481c0-30.937-6.004-61.118-17.844-89.703-11.077-26.74-26.753-50.855-46.638-71.767z" fill="#FF8C42" opacity="1" data-original="#FF8C42" class="hovered-path"></path><path d="M256 257.067c28.261 0 55.189 9.173 77.299 26.094 12.64-16.439 20.167-37.002 20.167-59.294V65.333C353.467 29.309 324.158 0 288.133 0h-64.267c-36.025 0-65.333 29.309-65.333 65.333v158.533c0 21.738 7.073 42.386 20.123 59.325 22.115-16.94 49.06-26.124 77.344-26.124zM200.766 304.199c16.134 11.136 35.248 17.134 55.234 17.134 19.989 0 39.104-5.998 55.234-17.132-16.134-11.136-35.248-17.134-55.234-17.134-19.989 0-39.104 5.998-55.234 17.132z" fill="#FF8C42" opacity="1" data-original="#FF8C42" class="hovered-path"></path></g></svg>