<svg xmlns="http://www.w3.org/2000/svg" version="1.1" xmlns:xlink="http://www.w3.org/1999/xlink" width="30" height="30" x="0" y="0" viewBox="0 0 491.5 491.5" style="enable-background:new 0 0 512 512" xml:space="preserve" class=""><g><g fill-rule="evenodd" clip-rule="evenodd"><path d="M291.6 352.3c-11.1-19.6-12.1-29.1-17.8-50.9-3.4-12.7 3.8-19.4 10.9-21.4 10.9-3 25.8 3.4 29.3 16.3.9 3.3 3 8.5 5.3 14 4.3 10.5 7.4 18.5 8.3 24.4 2 .4 3.9.9 5.6 1.4.6-9.3.7-18.5.8-28.2.3-27.5 1.1-52 10-78 6.3-18.5 7.4-42 3-62.7-5-23.2-16.5-41.2-32.4-50.5-14.8-8.7-34-14.8-50.4-17.7-24.9-4.5-50.8-3.6-68 5.6-27.4 14.7-17.9 76.1-9.3 98.6.5 1.4 1.1 2.8 1.6 4.2 1.3-1.7 2.7-3.6 4.1-5.5 3.6-4.7 7-9.2 8.7-12.2 6.8-11.5 22.8-13.8 32.5-8.1 6.4 3.7 11.5 12.1 5 23.5-10.8 18.8-14.9 28.8-30.4 44.6-1.9 1.9-4 4.1-6.6 6.7 4.4 27.8 2.6 55-6 87.9-7.1 27.1-4.1 57.3 7.6 77.1 7.7 12.9 18.6 21.2 32.7 24.7 26.9 6.7 47.7 2.1 63.7-14.2 0-18.2 4.9-54-1.3-67.1-2.7-5-5-9.2-6.9-12.5zm-34.4-168.5c-8.9-12.6-20.8-17.7-36.1-15.6-2.6.3-5-1.5-5.4-4.1-.3-2.6 1.5-5 4.1-5.4 19-2.5 34.2 4.1 45.2 19.6 1.5 2.2 1 5.2-1.1 6.7s-5.1 1-6.7-1.2zm3.2 92.3c-1.9-1.9-1.8-4.9.1-6.8 16.1-15.7 33-19 50.4-9.8 2.3 1.2 3.2 4.2 2 6.5s-4.1 3.2-6.5 2c-13.4-7.1-26.2-4.5-39.2 8.2-1.9 1.8-5 1.8-6.8-.1z" fill="#FF8C42" opacity="1" data-original="#FF8C42" class=""></path><path d="M201.6 243c13.9-14.2 19.2-25.6 28.9-42.6 4.1-7.1-.1-9.6-1.5-10.4-5-2.9-15.2-2.5-19.4 4.7-2.1 3.5-5.6 8.2-9.4 13.1-2.4 3.1-13 16.7-13.7 21.1-.3 2.6-2.7 4.7-5.4 4.3-23-2.5-28.2 7-30.2 14.5-1.6 6.1-10.9 3.7-9.3-2.4 2.9-11 11.6-23.4 36.6-21.9.8-1.9 2-4 3.4-6.3-1.2-3.4-2.5-6.9-3.8-10.4-4.3-11.2-8.1-27.6-9.2-44.6-17 15.4-27.8 29-28.7 34.2l-20 116.9h52.7c2.3-12.6 9.5-48.4 18.3-59.1l.1-.1v-.1l.1-.1c4.3-4.6 7.7-8 10.5-10.8zM371.5 318.4c.6-6.7-10-28.6-26-51-1.6 13.8-1.8 27.3-1.9 40.6-.1 10.4-.2 21.2-1.1 32 11.8 6.7 14.7 16.8 14.7 25.3 0 6.3-9.6 6.3-9.6 0 .1-15.2-13-19.9-25.4-21.8-2.7-.4-4.5-2.9-4.1-5.6.4-3.9-4.5-16-7.8-24-2.4-5.8-4.6-11.2-5.7-15.1-2.2-8-12-11.1-17.6-9.6-1.5.4-6.2 1.7-4.1 9.6 5 19 7.1 31.3 16.9 48.7 2.1 3.8 5.9 9.7 7.4 13.4 6.5 14.4 2.6 59.4 2.1 65.6v29.3H362l-.5-28.2c0-1 0-1.9.1-2.9zM189.8 97.2c.6-.4 1.2-.7 1.8-1 10.8-5.8 23.7-8.6 37.3-9.3 1.5-12 1.4-22.8-.4-34.8-1.2-6.6-3.7-11.1-7.5-13.7-4.6-3.2-11.8-3.7-21.3-1.6-8.6 1.9-14.3 5.5-17.2 10.8-4 7.5-1.2 16.4-.9 17.3 5.4 12.2 7.5 23.3 8.2 32.3zM262.9 89c2.6-7.9 4.1-15.7 4.9-24 .2-3.8-.7-6.7-2.7-9.1-3-3.5-8.7-5.7-15.5-6-3.3-.1-5.8.3-7.7 1.1-2.1.8-3.3 2.8-3.1 5 1.3 11.3.8 22.1-.2 30.6 8 .2 16.2 1.1 24.3 2.4zM300.6 78.3c.4-4.4-.2-7.6-2-9.6-1.9-2.3-5.6-3.5-10.9-3.8-3.1-.1-5.8.3-8 1.3-1.6.7-2.6 2.1-2.8 3.7-.9 7-2.6 14.7-4.5 21 8.2 1.8 16.2 4.1 23.6 6.8 2.2-6.2 3.9-12.9 4.6-19.4zM322.2 110.1c2.3-3.7 4.3-7.6 5.8-11.7 1.2-3.3 1.3-6 .4-7.9-1.1-2.2-3.7-4-7.9-5.4-3.9-1.3-9.5-2.2-12.2 4.8-1 4.2-2.2 8-3.4 11.3 5.4 2.3 10.3 4.7 14.6 7.3.9.4 1.8 1 2.7 1.6zM343.7 132.8c2.4-3.6 4.8-8 6.5-12.8 1.2-3.3 1.4-6 .4-7.9-1.1-2.2-3.7-4-7.9-5.4-3.1-1-5.6-1.2-7.6-.4-1.7 3.7-3.6 7-5.3 9.8 5.3 4.6 10 10.2 13.9 16.7z" fill="#FF8C42" opacity="1" data-original="#FF8C42" class=""></path></g></g></svg>