<svg width="30" height="30" viewBox="0 0 14 16" fill="none" xmlns="http://www.w3.org/2000/svg">
<path d="M7 7.5C7.69223 7.5 8.36892 7.29473 8.9445 6.91015C9.52007 6.52556 9.96867 5.97894 10.2336 5.33939C10.4985 4.69985 10.5678 3.99612 10.4327 3.31719C10.2977 2.63825 9.96436 2.01461 9.47487 1.52513C8.98539 1.03564 8.36175 0.702301 7.68282 0.567253C7.00388 0.432205 6.30015 0.501516 5.66061 0.766423C5.02107 1.03133 4.47444 1.47993 4.08986 2.05551C3.70527 2.63108 3.5 3.30777 3.5 4C3.5 4.92826 3.86875 5.8185 4.52513 6.47487C5.1815 7.13125 6.07174 7.5 7 7.5ZM7 1.5C7.49445 1.5 7.9778 1.64662 8.38893 1.92133C8.80005 2.19603 9.12048 2.58648 9.3097 3.04329C9.49892 3.50011 9.54843 4.00277 9.45196 4.48773C9.3555 4.97268 9.1174 5.41814 8.76777 5.76777C8.41814 6.1174 7.97268 6.3555 7.48773 6.45196C7.00277 6.54843 6.50011 6.49892 6.04329 6.3097C5.58648 6.12048 5.19603 5.80005 4.92133 5.38893C4.64662 4.9778 4.5 4.49445 4.5 4C4.5 3.33696 4.76339 2.70108 5.23223 2.23223C5.70107 1.76339 6.33696 1.5 7 1.5Z" fill="#FF8C42"/>
<path d="M13.235 11.1851C12.4332 10.3377 11.4669 9.6626 10.3953 9.20125C9.32366 8.7399 8.16921 8.50195 7.0025 8.50195C5.8358 8.50195 4.68135 8.7399 3.60973 9.20125C2.53811 9.6626 1.57185 10.3377 0.770001 11.1851C0.596157 11.3708 0.499607 11.6158 0.500001 11.8701V14.5001C0.500001 14.7654 0.605358 15.0197 0.792894 15.2073C0.980431 15.3948 1.23478 15.5001 1.5 15.5001H12.5C12.7652 15.5001 13.0196 15.3948 13.2071 15.2073C13.3946 15.0197 13.5 14.7654 13.5 14.5001V11.8701C13.5018 11.6165 13.407 11.3716 13.235 11.1851ZM12.5 14.5001H1.5V11.8651C2.20862 11.119 3.06165 10.5248 4.00718 10.1188C4.95271 9.71277 5.97098 9.50338 7 9.50338C8.02903 9.50338 9.04729 9.71277 9.99282 10.1188C10.9384 10.5248 11.7914 11.119 12.5 11.8651V14.5001Z" fill="#FF8C42"/>
</svg>
