<svg width="30" height="30" viewBox="0 0 14 16" fill="none" xmlns="http://www.w3.org/2000/svg">
<path d="M13.305 11.2598C12.5016 10.3893 11.5266 9.69461 10.4415 9.21946C9.35635 8.74432 8.18459 8.49902 7 8.49902C5.81541 8.49902 4.64365 8.74432 3.55853 9.21946C2.4734 9.69461 1.49843 10.3893 0.695 11.2598C0.570553 11.3967 0.501103 11.5748 0.5 11.7598V14.7598C0.502629 14.957 0.582806 15.1452 0.723174 15.2837C0.863543 15.4222 1.05281 15.4998 1.25 15.4998H12.75C12.9489 15.4998 13.1397 15.4208 13.2803 15.2801C13.421 15.1395 13.5 14.9487 13.5 14.7498V11.7498C13.4965 11.5682 13.4272 11.3941 13.305 11.2598Z" fill="#FF8C42"/>
<path d="M7 7.5C8.933 7.5 10.5 5.933 10.5 4C10.5 2.067 8.933 0.5 7 0.5C5.067 0.5 3.5 2.067 3.5 4C3.5 5.933 5.067 7.5 7 7.5Z" fill="#FF8C42"/>
</svg>
