<svg xmlns="http://www.w3.org/2000/svg" version="1.1" xmlns:xlink="http://www.w3.org/1999/xlink" width="30" height="30" x="0" y="0" viewBox="0 0 266.135 266.135" style="enable-background:new 0 0 512 512" xml:space="preserve" class=""><g><path d="M192.74 69.067c-2.035-5.479-8.13-8.267-13.613-6.263-.243.09-24.958 8.93-76.52 9.209-45.454.234-80.087-11.101-80.688-11.303-5.556-1.877-11.563 1.113-13.435 6.659-1.872 5.551 1.108 11.571 6.654 13.442 1.522.515 37.371 12.422 85.967 12.422.536 0 1.077 0 1.613-.005 55.897-.306 82.71-10.131 83.818-10.545 5.468-2.058 8.234-8.14 6.204-13.616z" fill="#FF8C42" opacity="1" data-original="#FF8C42" class=""></path><path d="M192.74 99.243c-2.035-5.479-8.13-8.272-13.613-6.263-.243.091-24.958 8.93-76.52 9.212-45.454.238-80.087-11.105-80.688-11.307-5.556-1.872-11.563 1.113-13.435 6.662-1.872 5.551 1.108 11.568 6.654 13.439 1.522.516 37.371 12.425 85.967 12.425.536 0 1.077 0 1.613-.005 55.897-.308 82.71-10.134 83.818-10.548a10.602 10.602 0 0 0 6.204-13.615z" fill="#FF8C42" opacity="1" data-original="#FF8C42" class=""></path><path d="M179.126 123.15c-.243.09-24.958 8.93-76.52 9.206-45.547.073-80.082-11.104-80.688-11.306-5.556-1.872-11.563 1.113-13.435 6.659-1.872 5.553 1.108 11.568 6.654 13.437 1.522.523 37.365 12.422 85.952 12.422h1.628c55.897-.305 82.71-10.128 83.818-10.553 5.468-2.051 8.233-8.124 6.203-13.603-2.033-5.477-8.128-8.266-13.612-6.262zM15.144 204.76c1.522.518 37.365 12.422 85.952 12.422.541 0 1.082 0 1.628-.005 55.898-.3 82.705-10.128 83.824-10.542 5.463-2.057 8.223-8.13 6.192-13.608-2.029-5.474-8.119-8.254-13.607-6.266-.249.093-24.959 8.927-76.52 9.207-.5.005-.987.005-1.481.005-44.778 0-78.612-11.112-79.207-11.309-5.556-1.87-11.563 1.118-13.435 6.658-1.872 5.557 1.108 11.564 6.654 13.438zM.005 32.483c0 5.856 3.997 13.22 9.421 15.431 12.821 5.225 40.242 12.8 91.249 12.658 50.05.143 78.011-7.609 91.153-12.831 5.442-2.165 9.518-9.396 9.518-15.252V20.041c0-1.326-.249-2.465-.652-3.441 0-.018.021-.028.021-.044 0-7.493-44.791-13.566-100.044-13.566C45.42 2.989.632 9.063.632 16.556c0 .011.015.034.015.044C.243 17.576 0 18.71 0 20.036v12.448h.005zm100.67-20.427c20.247 0 36.661 3.229 36.661 7.2 0 3.982-16.415 7.2-36.661 7.2-20.254 0-36.661-3.218-36.661-7.2.001-3.971 16.407-7.2 36.661-7.2z" fill="#FF8C42" opacity="1" data-original="#FF8C42" class=""></path><path d="M201.346 235.057v-12.448c0-5.856-4.241-8.445-9.725-6.379-14.137 5.308-43.921 13.82-90.946 14.576-47.02-.756-76.81-9.269-90.946-14.576-5.483-2.066-9.724.522-9.724 6.379v12.448c0 5.856 3.997 13.22 9.421 15.426 12.821 5.22 40.242 12.801 91.249 12.661 50.05.14 78.011-7.607 91.153-12.837 5.448-2.164 9.518-9.394 9.518-15.25z" fill="#FF8C42" opacity="1" data-original="#FF8C42" class=""></path><path d="M213.592 215.132c1.372 28.174 33.674 44.506 37.35 46.276a10.595 10.595 0 0 0 14.131-4.945c2.553-5.261.348-11.604-4.914-14.156-6.845-3.335-24.74-14.897-25.383-28.205-2.609-53.78-32.777-61.848-50.522-61.879h-.016c-1.491 0-2.91.321-4.194.87-.311.083-.616.124-.917.232-.243.089-24.958 8.933-76.52 9.207-45.547.472-80.082-11.106-80.688-11.304-5.556-1.869-11.563 1.118-13.435 6.659-1.872 5.551 1.108 11.567 6.654 13.432 1.522.519 37.365 12.428 85.952 12.428.541 0 1.083 0 1.628-.005 51.72-.285 78.49-8.705 83.088-10.289 7.928.192 25.902 2.879 27.786 41.679z" fill="#FF8C42" opacity="1" data-original="#FF8C42" class=""></path></g></svg>