<svg xmlns="http://www.w3.org/2000/svg" version="1.1" xmlns:xlink="http://www.w3.org/1999/xlink" width="30" height="30" x="0" y="0" viewBox="0 0 128 128" style="enable-background:new 0 0 512 512" xml:space="preserve" class=""><g><path d="M8.112 18.458c-1.635-3.533-3.314-6.782-5.101-9.862v36.885c1.59-6.057 4.115-14.53 7.526-22.459-1.542-2.853-2.425-4.564-2.425-4.564zM44.827 40.421l19.029 30.044c.429.628.633.93 2.626-.313l7.223-5.143c-11.02-16.979-19.46-33.312-19.583-33.552-.173-.374-.343-.723-.514-1.087l-9.062 7.496c-.562.509-.933.846.281 2.555z" fill="#FF8C42" opacity="1" data-original="#FF8C42"></path><path d="M124.985 123.101c-.146-.604-.659-1.097-.987-1.101-2.597-.035-4.304-.44-5.707-1.354-1.864-1.215-3.489-3.547-5.061-5.802-.854-1.224-1.659-2.379-2.388-3.17C99.737 99.638 91.586 89.7 90.208 87.6 84.933 81.438 79.644 74.048 74.8 66.683l-7.209 5.131c-1.266.79-2.269 1.187-3.108 1.187-.922 0-1.645-.479-2.299-1.438L43.167 41.535c-1.94-2.73-1.131-4.093.036-5.15l.126-.116 9.39-7.759C40.17 2.78 31.176 3.003 31.09 2.997 22.089 3 14.962 16.789 10.555 28.356 5.91 40.547 3.267 52.885 3.011 54.103v63.846c8.744-.899 15.041-13.267 15.106-13.396a.89.89 0 0 1 .075-.126C24.976 94.736 31.95 45.36 32.02 44.862a.999.999 0 0 1 1.857-.36C56.447 83.754 82.228 97.98 82.486 98.12c.031.017.062.035.091.055 2.407 1.65 3.435 3.393 3.435 5.825 0 2.813-.372 5.493-1.015 9.172-.189 1.085.009 1.985.606 2.754.991 1.274 2.967 1.961 4.485 2.077.945.061 2.451.008 4.047-.045 2.254-.077 4.586-.156 6.02.053 2.092.302 3.251.949 5.006 1.928l.336.188c1.497.832 2.451 1.423 3.658 2.171l1.334.823c6.006 2.832 12.195 1.857 14.102.973.213-.116.544-.372.394-.993z" fill="#FF8C42" opacity="1" data-original="#FF8C42"></path><path d="M77.987 109c-2.597-.035-4.304-.44-5.707-1.354-1.864-1.216-3.49-3.548-5.062-5.803-.853-1.224-1.658-2.379-2.387-3.17C53.728 86.638 45.576 76.7 44.198 74.6c-3.819-4.46-7.935-9.907-12.251-16.2-1.012 6.093-2.345 13.557-3.88 20.806 5.128 4.049 8.391 5.905 8.424 5.924C38.973 86.826 40 88.568 40 91.001c0 2.817-.372 5.496-1.015 9.172-.189 1.085.009 1.985.606 2.754.991 1.274 2.967 1.961 4.485 2.077.944.061 2.452.009 4.047-.045 2.254-.076 4.586-.155 6.02.053 2.092.302 3.251.949 5.006 1.928l.336.188c1.497.832 2.451 1.423 3.658 2.171l1.334.823c6.006 2.832 12.195 1.857 14.102.973.213-.115.544-.371.394-.992-.144-.607-.658-1.099-.986-1.103zM78.022 32.021H122A1.01 1.01 0 1 0 122 30H78.022a1.011 1.011 0 0 0 0 2.021zM120.011 34.021h-4.999l-1.843 3.402c1.786.407 3.061 1.05 4.304 1.684.818.416 1.61.813 2.538 1.137zM121.132 18.523c.988-1.62 1.174-3.086.548-4.173a2.688 2.688 0 0 0-2.446-1.319c-1.335.029-2.551.914-3.334 2.428L108.933 28h7.066zM80.011 44.021c0 5.514 4.486 10 10 10h20c5.514 0 10-4.486 10-10v-1.685c-1.356-.401-2.425-.928-3.445-1.447-1.908-.972-3.709-1.89-7.555-1.89-3.868 0-5.917.928-8.087 1.911-2.268 1.028-4.613 2.09-8.913 2.09-4.324 0-6.428-1.07-8.463-2.105-1.09-.555-2.139-1.082-3.537-1.439zM111.069 37.102l1.669-3.081h-7.15l-2.069 3.724c1.467-.438 3.197-.745 5.493-.745.756 0 1.424.043 2.057.102z" fill="#FF8C42" opacity="1" data-original="#FF8C42"></path><path d="M92.011 41c3.868 0 5.917-.928 8.087-1.911l.514-.231 2.687-4.837H80.011v3.375c1.87.406 3.175 1.07 4.443 1.715 1.91.972 3.713 1.889 7.557 1.889z" fill="#FF8C42" opacity="1" data-original="#FF8C42"></path></g></svg>