<svg xmlns="http://www.w3.org/2000/svg" version="1.1" xmlns:xlink="http://www.w3.org/1999/xlink" width="30" height="30" x="0" y="0" viewBox="0 0 24 24" style="enable-background:new 0 0 512 512" xml:space="preserve"><g><path d="M20 8a3 3 0 1 0-3-3 3 3 0 0 0 3 3zm0-4a1 1 0 1 1-1 1 1 1 0 0 1 1-1zM1 5a1 1 0 0 1 1-1h12a1 1 0 0 1 0 2H2a1 1 0 0 1-1-1zm7 4a3 3 0 0 0-2.82 2H2a1 1 0 0 0 0 2h3.18A3 3 0 1 0 8 9zm0 4a1 1 0 1 1 1-1 1 1 0 0 1-1 1zm15-1a1 1 0 0 1-1 1h-8a1 1 0 0 1 0-2h8a1 1 0 0 1 1 1zm-12 7a1 1 0 0 1-1 1H2a1 1 0 0 1 0-2h8a1 1 0 0 1 1 1zm11-1h-3.18a3 3 0 1 0 0 2H22a1 1 0 0 0 0-2zm-6 2a1 1 0 1 1 1-1 1 1 0 0 1-1 1z" fill="#000000" opacity="1" data-original="#000000"></path></g></svg>