<svg xmlns="http://www.w3.org/2000/svg" version="1.1" xmlns:xlink="http://www.w3.org/1999/xlink" width="20" height="20" x="0" y="0" viewBox="0 0 611.461 611.461" style="enable-background:new 0 0 512 512" xml:space="preserve" class=""><g><path d="M526.42 287.384a146.331 146.331 0 0 0-68.21-6.603l-80.326-80.316 23.803-23.803 87.866 87.866c3.998 3.862 10.354 3.806 14.284-.124a10.189 10.189 0 0 0 .124-14.284l-87.866-87.866 23.803-23.803 87.866 87.866c3.998 3.862 10.354 3.806 14.284-.124 3.93-3.931 3.986-10.286.124-14.284l-87.866-87.866 15.825-15.825a12.228 12.228 0 0 1 17.322 0l71.328 71.328c8.505 7.832 21.62 7.752 30.029-.183 30.119-30.199 30.119-79.076 0-109.275l-47.382-47.382C526.938 8.214 507.285.073 486.792.073s-40.147 8.141-54.638 22.632L294.745 160.012 218.892 24.488a46.384 46.384 0 0 0-7.958-10.546C195.75-1.165 172.364-4.31 153.729 6.249a10.189 10.189 0 0 0-4.585 12.228l69.943 200.637L18.46 149.19a10.191 10.191 0 0 0-12.228 4.585c-10.601 18.601-7.446 41.995 7.703 57.124a45.934 45.934 0 0 0 10.383 7.958l135.707 75.873L22.658 432.078c-30.119 30.199-30.119 79.076 0 109.275l47.352 47.382a77.217 77.217 0 0 0 109.296 0 21.309 21.309 0 0 0 0-30.212l-71.125-71.125a12.228 12.228 0 0 1 0-17.322l15.825-15.825 87.866 87.866c3.998 3.862 10.354 3.806 14.284-.124 3.931-3.93 3.986-10.286.124-14.284l-87.856-87.785 23.803-23.803 87.866 87.866c3.998 3.862 10.354 3.806 14.284-.124a10.189 10.189 0 0 0 .124-14.284l-87.866-87.866 23.803-23.803 80.356 80.357a147.528 147.528 0 0 0 6.501 68.19c16.925 50.643 56.105 84.962 93.165 84.962a57.514 57.514 0 0 0 18.168-2.914 64.5 64.5 0 0 0 37.121-33.932 132.108 132.108 0 0 0 2.476-98.209c-14.184-42.4-44.692-74.915-77.187-83.016l-16.986-43.48 5.431-5.727 43.816 16.956c8.08 32.607 40.586 63.044 82.985 77.147a154.434 154.434 0 0 0 48.911 8.152 110.873 110.873 0 0 0 49.369-10.648 64.369 64.369 0 0 0 33.85-37.07c14.085-42.34-21.946-91.231-81.994-111.294zm-90.985-.561a86.378 86.378 0 0 0-9.578 4.412l-71.695-25.006-15.081-26.962 24.394-24.405zm11.056-249.731a56.9 56.9 0 0 1 80.5 0l47.382 47.382a56.739 56.739 0 0 1-.682 80.733 1.255 1.255 0 0 1-.744-.275l-71.125-71.155c-12.732-12.724-33.366-12.724-46.099 0L328.769 220.731l-23.661-42.288zM171.612 21.003a27.36 27.36 0 0 1 24.904 7.357 26.18 26.18 0 0 1 4.545 5.981l124.081 221.78-81.457-28.399zm-77.86 434.746c-12.724 12.732-12.724 33.366 0 46.099l71.125 71.125v1.386a56.847 56.847 0 0 1-80.5 0l-47.382-47.382c-22.202-22.241-22.202-58.259 0-80.499l141.526-141.414 42.288 23.65zm121.095-92.248 24.455-24.455 26.942 15.06 24.975 71.777a89.47 89.47 0 0 0-4.392 9.589zm129.217 42.339a10.189 10.189 0 0 0 7.928 6.389c27.339 4.28 54.22 32.607 66.906 70.554a111.528 111.528 0 0 1-1.376 82.629 44.61 44.61 0 0 1-25.322 23.701c-30.498 10.19-69.678-21.541-85.594-69.107-10.822-32.475-9.171-66.06 4.382-87.632a10.19 10.19 0 0 0 1.019-8.763l-19.85-57.063a50.344 50.344 0 0 0 35.287-3.689zm245.012-13.593a44.447 44.447 0 0 1-23.63 25.25 111.454 111.454 0 0 1-82.659 1.355c-37.937-12.625-66.233-39.496-70.503-66.875a10.191 10.191 0 0 0-6.399-7.948l-49.043-18.943a20.056 20.056 0 0 0-21.399 4.585l-9.7 9.66a29.774 29.774 0 0 1-35.328 4.891S30.06 198.253 28.334 196.46a27.022 27.022 0 0 1-7.347-24.802l402.598 140.374a10.304 10.304 0 0 0 8.794-1.019c21.572-13.593 55.116-15.285 87.561-4.32 48.421 16.192 79.438 54.566 69.136 85.554z" fill="#FF8C42" opacity="1" data-original="#FF8C42"></path><path d="M513.968 324.943a84.114 84.114 0 0 0-61.139.469 28.534 28.534 0 0 0-15.224 16.059c-6.807 20.512 16.64 47.617 51.204 59.192a103.195 103.195 0 0 0 32.434 5.462 64.886 64.886 0 0 0 28.725-5.93 28.532 28.532 0 0 0 15.203-16.008c6.807-20.563-16.64-47.668-51.203-59.244zm31.853 52.773a9.592 9.592 0 0 1-4.983 4.249 63.367 63.367 0 0 1-45.609-.632c-27.675-9.262-40.209-27.777-38.324-33.443a9.592 9.592 0 0 1 4.983-4.249 45.673 45.673 0 0 1 19.768-3.821 81.509 81.509 0 0 1 25.811 4.453c27.716 9.263 40.239 27.777 38.354 33.443zM325.406 452.815a84.12 84.12 0 0 0-.469 61.139c10.19 30.518 32.556 52.365 51.764 52.365a23.172 23.172 0 0 0 7.428-1.182 28.533 28.533 0 0 0 16.049-15.203 84.099 84.099 0 0 0 .469-61.139c-11.565-34.574-38.782-57.99-59.182-51.193a28.524 28.524 0 0 0-16.059 15.213zm18.23 9.119a9.643 9.643 0 0 1 4.249-4.983 3.953 3.953 0 0 1 1.264-.183c6.776 0 23.518 12.635 32.179 38.507a63.443 63.443 0 0 1 .622 45.579 9.657 9.657 0 0 1-4.239 4.973c-5.574 1.905-24.17-10.628-33.443-38.314a63.485 63.485 0 0 1-.632-45.579zM282.456 296.891a10.19 10.19 0 1 0 14.408 0c-3.979-3.978-10.429-3.978-14.408 0z" fill="#FF8C42" opacity="1" data-original="#FF8C42"></path></g></svg>